<?xml version="1.0" standalone="no"?>
<!DOCTYPE svg PUBLIC "-//W3C//DTD SVG 20010904//EN"
 "http://www.w3.org/TR/2001/REC-SVG-20010904/DTD/svg10.dtd">
<svg version="1.0" xmlns="http://www.w3.org/2000/svg"
 width="1024.000000pt" height="1024.000000pt" viewBox="0 0 1024.000000 1024.000000"
 preserveAspectRatio="xMidYMid meet" style="background:white">

<g transform="translate(0.000000,1024.000000) scale(0.100000,-0.100000)"
fill="rgb(255, 9, 9)" stroke="white">
<path d="M0 5120 l0 -5120 5120 0 5120 0 0 5120 0 5120 -5120 0 -5120 0 0
-5120z m5509 3061 c685 -129 1286 -644 1500 -1287 135 -403 144 -856 25 -1226
-76 -238 -177 -412 -431 -750 -182 -242 -251 -343 -316 -469 -83 -158 -117
-285 -132 -492 -7 -86 -9 -97 -24 -90 -9 4 -217 9 -463 11 l-448 3 0 219 0
220 38 15 c49 21 120 90 143 140 13 28 19 63 19 120 0 74 -3 86 -32 135 -71
117 -186 163 -323 129 -88 -22 -180 -135 -192 -237 -13 -109 54 -230 152 -276
l55 -27 0 -219 0 -220 -422 0 c-233 0 -440 -4 -460 -9 l-37 -9 -6 67 c-34 372
-96 507 -451 977 -303 402 -424 635 -490 948 -35 166 -44 475 -20 646 56 386
204 711 458 1007 327 380 795 632 1288 692 129 16 439 6 569 -18z m-2643 -367
c115 -75 217 -141 226 -147 19 -13 38 -50 38 -76 0 -10 -10 -31 -22 -46 -17
-22 -27 -26 -54 -22 -47 8 -473 293 -485 325 -18 47 18 101 67 102 12 0 116
-61 230 -136z m4849 111 c27 -26 32 -60 12 -86 -19 -25 -436 -308 -464 -315
-39 -10 -73 4 -89 39 -29 60 -16 74 233 237 245 161 265 169 308 125z m-5297
-1196 c136 -22 260 -45 275 -51 41 -16 62 -62 46 -99 -6 -17 -20 -34 -30 -40
-21 -11 -565 76 -588 94 -40 33 -32 95 16 121 15 8 29 15 31 16 2 0 114 -18
250 -41z m5763 12 c35 -35 37 -61 7 -95 -21 -24 -45 -29 -296 -71 -279 -46
-300 -47 -324 -11 -21 31 -3 97 29 111 20 9 494 92 531 94 14 1 36 -11 53 -28z
m-5445 -1026 c32 -33 30 -80 -6 -107 -24 -17 -490 -118 -549 -118 -38 0 -61
28 -61 72 0 50 24 73 92 87 158 33 456 89 476 90 13 1 34 -10 48 -24z m5142
-25 c141 -28 262 -56 270 -63 8 -6 22 -27 29 -46 13 -31 13 -36 -5 -60 -10
-14 -28 -27 -39 -29 -12 -2 -139 20 -284 47 -287 56 -309 64 -309 125 0 35 34
76 63 76 11 0 135 -23 275 -50z m-4724 -946 c18 -18 29 -54 24 -81 -5 -28
-443 -343 -477 -343 -17 0 -38 11 -55 29 -50 52 -40 64 206 247 180 133 228
164 254 164 18 0 40 -7 48 -16z m4286 -141 c223 -161 246 -184 229 -230 -11
-30 -54 -56 -82 -49 -22 5 -401 268 -444 309 -29 26 -31 79 -3 107 41 41 66
30 300 -137z m-2209 104 c41 -27 64 -83 55 -132 -9 -47 -59 -102 -106 -116
-35 -11 -43 -9 -83 15 -99 57 -113 152 -35 222 29 27 44 32 94 33 27 1 52 -7
75 -22z m899 -988 c117 -25 180 -135 146 -253 -19 -64 -75 -121 -133 -133 -21
-4 -472 -8 -1003 -8 l-965 0 -47 22 c-31 14 -56 36 -75 64 -24 37 -28 52 -28
114 0 61 4 77 27 113 30 44 71 71 128 83 61 12 1893 10 1950 -2z m-49 -565
c162 -75 125 -337 -52 -373 -85 -18 -1753 -11 -1794 7 -75 33 -118 100 -119
187 -1 103 57 177 153 196 20 4 425 6 901 5 859 -1 865 -1 911 -22z m-348
-574 c-7 -161 -136 -349 -303 -442 -91 -51 -176 -72 -290 -71 -162 2 -308 68
-424 193 -84 91 -146 234 -146 338 l0 42 583 -2 582 -3 -2 -55z"/>
<path d="M4481 7704 c-133 -35 -252 -135 -310 -258 l-29 -61 -62 -12 c-143
-27 -261 -119 -324 -253 -29 -61 -31 -73 -33 -188 l-1 -122 -50 -39 c-165
-130 -229 -335 -173 -549 24 -91 60 -152 133 -226 l58 -58 -25 -52 c-77 -157
-66 -354 26 -497 42 -66 143 -158 209 -191 62 -31 159 -58 206 -58 29 0 34 -4
45 -37 41 -130 183 -264 314 -298 235 -60 482 82 550 319 26 88 18 222 -18
299 l-26 58 35 46 c61 79 94 163 109 274 12 93 -31 253 -90 340 l-25 36 30 65
c41 89 63 197 54 273 -14 127 -72 252 -153 329 l-30 29 49 54 c179 196 165
491 -33 669 -118 106 -288 148 -436 108z m245 -158 c72 -33 148 -106 181 -175
68 -142 6 -333 -136 -418 -71 -42 -174 -60 -247 -43 -46 11 -56 11 -77 -3 -31
-20 -41 -60 -25 -95 11 -21 24 -29 73 -39 82 -17 134 -16 210 3 l64 16 30 -24
c52 -44 90 -94 118 -154 22 -48 26 -73 27 -143 0 -76 -3 -94 -30 -151 -41 -85
-99 -149 -171 -187 -91 -48 -105 -49 -128 -7 -40 75 -114 106 -157 67 -27 -24
-23 -75 8 -104 54 -50 69 -108 47 -185 -15 -53 -15 -56 4 -82 14 -18 31 -28
54 -30 49 -4 75 24 90 99 8 39 18 63 28 66 66 21 131 52 168 80 24 18 45 33
47 33 2 0 16 -28 31 -62 54 -120 45 -265 -24 -375 -29 -47 -49 -53 -75 -24
-25 28 -96 50 -124 40 -12 -5 -27 -19 -33 -33 -20 -43 -4 -73 65 -116 102 -64
146 -144 146 -262 0 -88 -26 -152 -89 -216 -60 -62 -119 -86 -211 -86 -91 -1
-154 24 -218 87 -68 66 -102 147 -102 248 l0 56 55 -5 c77 -6 101 2 114 39 8
24 8 38 -2 58 -10 22 -22 27 -81 37 -66 11 -71 14 -121 68 -29 31 -59 56 -68
56 -31 0 -68 -24 -73 -47 -7 -27 19 -94 45 -117 15 -13 15 -23 7 -72 l-11 -56
-56 5 c-116 10 -245 103 -297 214 -24 51 -27 70 -27 158 0 88 3 107 27 158 15
31 28 57 30 57 2 0 24 -7 51 -15 26 -8 81 -15 123 -17 83 -2 104 10 104 59 0
45 -38 69 -120 77 -93 8 -163 40 -231 103 -161 151 -165 401 -8 548 l51 48 48
-52 c61 -66 105 -68 138 -4 15 27 7 48 -36 97 -55 62 -76 119 -76 211 -1 68 3
88 26 130 78 146 225 212 378 167 l65 -19 -4 -72 c-3 -83 12 -111 61 -111 41
0 64 29 71 88 8 68 30 107 76 137 45 28 56 51 41 89 -20 54 -82 58 -140 10
l-31 -27 -52 24 c-29 13 -53 24 -55 25 -10 6 32 65 71 101 111 103 237 127
363 69z"/>
<path d="M4066 6607 c-29 -29 -31 -44 -15 -81 13 -28 35 -36 107 -36 61 0 92
23 92 68 0 50 -21 65 -93 70 -60 4 -68 2 -91 -21z"/>
<path d="M5594 7705 c-80 -17 -148 -53 -211 -109 -105 -94 -153 -209 -154
-362 0 -139 33 -227 123 -320 l39 -41 -60 -80 c-68 -90 -93 -142 -111 -229
-22 -105 7 -279 59 -352 l21 -30 -40 -68 c-56 -96 -74 -161 -74 -269 0 -114
27 -198 94 -294 l50 -70 -30 -64 c-76 -160 -34 -367 99 -496 138 -135 351
-168 519 -82 73 37 168 140 206 223 l34 73 79 13 c213 34 390 197 432 400 24
114 8 260 -38 350 l-19 37 54 57 c162 176 198 399 98 606 -29 59 -118 160
-168 192 l-33 20 14 52 c15 60 6 155 -24 231 -57 147 -202 267 -342 284 l-51
6 -37 69 c-85 162 -252 269 -418 267 -27 0 -77 -7 -111 -14z m210 -145 c29
-12 72 -34 95 -50 42 -31 101 -104 101 -125 0 -6 -23 -21 -51 -33 l-52 -22
-34 30 c-61 54 -143 31 -143 -40 0 -24 8 -35 40 -56 56 -37 80 -80 80 -142 0
-43 4 -54 26 -71 35 -27 59 -26 89 4 22 21 25 33 25 93 l0 69 51 16 c115 38
218 15 308 -69 76 -70 105 -134 105 -229 0 -82 -23 -138 -85 -209 -53 -60 -50
-115 7 -136 32 -13 70 6 113 55 36 42 47 39 105 -26 77 -84 109 -205 87 -324
-32 -173 -154 -283 -339 -307 -48 -6 -95 -18 -104 -26 -22 -19 -23 -60 -2 -90
13 -19 24 -22 83 -22 37 0 90 7 117 15 27 8 52 15 56 15 14 0 48 -88 58 -151
25 -164 -57 -322 -208 -398 -33 -16 -82 -33 -110 -37 l-50 -6 -12 55 c-12 54
-12 55 19 100 17 25 31 54 31 65 0 28 -30 60 -62 68 -24 5 -35 -1 -82 -50 -29
-31 -55 -56 -57 -56 -30 -1 -125 -22 -135 -31 -20 -16 -18 -84 3 -104 13 -13
30 -16 79 -13 l63 4 6 -39 c22 -126 -59 -263 -193 -328 -64 -31 -168 -31 -234
-2 -101 46 -182 153 -194 259 -13 106 50 225 152 290 30 19 59 45 63 56 20 54
-23 105 -78 93 -16 -3 -48 -20 -71 -36 -48 -35 -54 -33 -93 39 -39 72 -61 166
-53 233 5 55 51 179 66 179 4 0 18 -8 31 -19 33 -26 116 -66 166 -81 34 -11
43 -18 48 -41 3 -16 8 -42 11 -59 8 -44 41 -80 72 -80 57 0 78 39 62 116 -16
77 -6 122 41 179 21 26 39 56 39 67 0 21 -42 68 -62 68 -23 0 -88 -50 -116
-89 l-28 -38 -41 12 c-129 38 -238 178 -259 332 -13 100 53 258 138 326 l36
29 82 -18 c70 -15 92 -16 158 -5 86 13 112 30 112 75 0 67 -40 89 -119 66 -50
-14 -164 5 -223 37 -62 34 -113 90 -146 162 -20 44 -26 71 -25 131 0 89 19
146 69 207 93 114 242 159 368 113z"/>
<path d="M6093 6620 c-44 -18 -56 -77 -23 -110 25 -25 124 -28 158 -4 28 20
31 83 4 107 -20 19 -101 22 -139 7z"/>
</g>
</svg>
